<svg width="302" height="303" viewBox="0 0 302 303" fill="none" xmlns="http://www.w3.org/2000/svg">
<g filter="url(#filter0_d)">
<rect x="35" y="35" width="232" height="233" rx="14" fill="#00C087"/>
<rect x="95" y="96" width="111" height="111" rx="24" fill="white"/>
<path d="M150.492 117.468L151.134 117.273C159.518 114.853 166.574 117.479 171.012 123.922L171.304 124.36L171.855 124.587C183.501 129.535 185.411 141.754 180.15 151.074C182.977 154.856 183.574 158.611 182.133 162.085C181.2 164.333 179.663 166.083 177.556 167.732L177.443 167.815L177.457 168.386C177.522 175.98 173.486 179.881 167.549 179.955C165.907 183.323 163.082 185.485 159.244 186.27C155.827 186.969 152.821 186.311 150.438 184.367C145.815 187.898 137.771 186.493 133.693 180.705L133.299 180.11L133.194 180.107C126.29 179.804 122.674 175.192 123.31 168.738L123.37 168.214L123.191 168.123C118.861 165.711 116.841 160.215 118.202 154.998L118.367 154.42C118.784 153.077 119.388 151.86 120.162 150.786C115.099 142.545 117.479 128.613 128.801 124.957L129.246 124.821L129.817 124.095C130.294 123.491 130.719 122.975 131.154 122.475C136.325 116.539 142.339 114.286 150.492 117.468ZM153.057 122.221L153.054 179.535C154.348 181.077 155.932 181.556 158.172 181.098C159.867 180.751 161.135 180.02 162.05 178.827C159.221 177.331 157.618 174.321 157.312 170.169C157.205 168.715 158.305 167.45 159.768 167.343C161.232 167.237 162.505 168.33 162.612 169.784C162.843 172.918 163.82 174.232 165.715 174.535C170.359 175.279 172.692 173.352 172.054 166.804C171.961 165.856 172.39 164.933 173.175 164.387C175.213 162.97 176.584 161.603 177.219 160.072C177.791 158.695 177.71 157.202 176.704 155.438C172.896 158.83 167.418 160.646 164.261 159.326C162.909 158.76 162.274 157.212 162.843 155.868C163.413 154.524 164.971 153.893 166.324 154.459C167.629 155.005 172.553 152.913 174.7 149.794C179.728 142.492 178.486 132.452 168.643 129.008C168.052 128.802 167.554 128.395 167.236 127.859C164.166 122.687 159.379 120.544 153.057 122.221ZM135.172 125.931L134.409 126.841L132.9 128.762C132.527 129.238 132.002 129.573 131.411 129.711C123.4 131.584 121.286 141.289 124.245 147.231C127.636 145.396 132.181 144.882 137.495 146.06C138.928 146.377 139.83 147.789 139.51 149.212C139.191 150.635 137.77 151.531 136.338 151.214C129.124 149.614 124.744 151.796 123.445 155.977C122.371 159.437 123.856 162.979 126.614 163.87L126.998 163.974C128.47 164.305 129.371 165.786 128.979 167.234C127.567 172.464 129.416 175.141 134.716 174.818C135.82 174.751 136.85 175.37 137.303 176.372C139.506 181.247 145.666 182.218 147.746 179.636L147.739 122.085C142.387 120.257 138.805 121.761 135.172 125.931ZM132.206 156.912C135.161 158.013 137.553 159.702 139.328 161.969C141.145 164.291 142.112 167.109 142.237 170.342C142.294 171.8 141.15 173.026 139.684 173.082C138.217 173.138 136.983 172.002 136.926 170.545C136.843 168.379 136.242 166.628 135.133 165.211C133.981 163.74 132.402 162.625 130.34 161.857C128.966 161.345 128.269 159.823 128.785 158.458C129.3 157.092 130.832 156.4 132.206 156.912ZM163.611 133.726C164.407 136.448 165.481 138.255 166.75 139.218C167.964 140.141 169.734 140.562 172.164 140.395C173.628 140.295 174.897 141.393 174.998 142.848C175.099 144.302 173.994 145.563 172.53 145.663C168.899 145.912 165.86 145.19 163.521 143.413C161.236 141.677 159.594 138.915 158.508 135.198C158.098 133.798 158.909 132.333 160.319 131.927C161.728 131.52 163.202 132.326 163.611 133.726ZM143.048 129.097C144.472 129.451 145.338 130.884 144.982 132.299C144.295 135.026 142.837 137.127 140.635 138.439C138.652 139.622 136.454 140.218 134.095 140.218C132.627 140.218 131.437 139.036 131.437 137.577C131.437 136.119 132.627 134.937 134.095 134.937C135.498 134.937 136.75 134.598 137.901 133.912C138.835 133.355 139.467 132.444 139.826 131.018C140.182 129.603 141.624 128.743 143.048 129.097Z" fill="#00C087"/>
</g>
<defs>
<filter id="filter0_d" x="0" y="0" width="302" height="303" filterUnits="userSpaceOnUse" color-interpolation-filters="sRGB">
<feFlood flood-opacity="0" result="BackgroundImageFix"/>
<feColorMatrix in="SourceAlpha" type="matrix" values="0 0 0 0 0 0 0 0 0 0 0 0 0 0 0 0 0 0 127 0" result="hardAlpha"/>
<feOffset/>
<feGaussianBlur stdDeviation="17.5"/>
<feColorMatrix type="matrix" values="0 0 0 0 0 0 0 0 0 0 0 0 0 0 0 0 0 0 0.1 0"/>
<feBlend mode="normal" in2="BackgroundImageFix" result="effect1_dropShadow"/>
<feBlend mode="normal" in="SourceGraphic" in2="effect1_dropShadow" result="shape"/>
</filter>
</defs>
</svg>
