<svg width="302" height="303" viewBox="0 0 302 303" fill="none" xmlns="http://www.w3.org/2000/svg">
<g filter="url(#filter0_d)">
<rect x="35" y="35" width="232" height="233" rx="14" fill="#171618"/>
<rect x="91.5" y="92.5" width="119" height="119" rx="59.5" fill="#171618" stroke="#F9E745" stroke-width="5"/>
<path d="M114.022 164.659C114.311 165.183 114.639 165.835 115.008 166.614C115.393 167.378 115.786 168.213 116.187 169.119C116.603 170.009 117.012 170.924 117.413 171.862C117.814 172.8 118.191 173.683 118.543 174.509C118.896 173.683 119.273 172.8 119.674 171.862C120.075 170.924 120.475 170.009 120.876 169.119C121.293 168.213 121.686 167.378 122.055 166.614C122.439 165.835 122.776 165.183 123.065 164.659H126.48C126.64 165.756 126.784 166.988 126.913 168.356C127.057 169.707 127.177 171.122 127.273 172.601C127.386 174.064 127.482 175.535 127.562 177.014C127.658 178.493 127.738 179.884 127.802 181.188H124.147C124.099 179.582 124.035 177.833 123.954 175.941C123.874 174.048 123.754 172.14 123.594 170.216C123.305 170.884 122.984 171.623 122.632 172.434C122.279 173.245 121.926 174.056 121.574 174.867C121.237 175.678 120.908 176.457 120.588 177.205C120.267 177.936 119.994 178.564 119.77 179.089H117.149C116.924 178.564 116.652 177.936 116.331 177.205C116.01 176.457 115.673 175.678 115.321 174.867C114.984 174.056 114.639 173.245 114.287 172.434C113.934 171.623 113.613 170.884 113.325 170.216C113.164 172.14 113.044 174.048 112.964 175.941C112.884 177.833 112.82 179.582 112.772 181.188H109.116C109.18 179.884 109.252 178.493 109.333 177.014C109.429 175.535 109.525 174.064 109.621 172.601C109.733 171.122 109.854 169.707 109.982 168.356C110.126 166.988 110.278 165.756 110.439 164.659H114.022Z" fill="white"/>
<path d="M142.267 181.188C142.091 180.616 141.89 180.027 141.666 179.423C141.457 178.819 141.249 178.214 141.041 177.61H134.547C134.339 178.214 134.122 178.819 133.898 179.423C133.689 180.027 133.497 180.616 133.321 181.188H129.425C130.05 179.407 130.643 177.761 131.204 176.251C131.766 174.74 132.311 173.317 132.84 171.981C133.385 170.645 133.914 169.381 134.427 168.189C134.956 166.98 135.501 165.803 136.062 164.659H139.646C140.191 165.803 140.728 166.98 141.257 168.189C141.786 169.381 142.315 170.645 142.844 171.981C143.389 173.317 143.943 174.74 144.504 176.251C145.065 177.761 145.658 179.407 146.283 181.188H142.267ZM137.77 168.403C137.69 168.642 137.569 168.968 137.409 169.381C137.249 169.795 137.064 170.272 136.856 170.812C136.648 171.353 136.415 171.949 136.159 172.601C135.918 173.253 135.67 173.937 135.413 174.653H140.151C139.894 173.937 139.646 173.253 139.405 172.601C139.165 171.949 138.932 171.353 138.708 170.812C138.499 170.272 138.315 169.795 138.155 169.381C137.994 168.968 137.866 168.642 137.77 168.403Z" fill="white"/>
<path d="M158.205 181.188C157.868 180.647 157.467 180.067 157.002 179.447C156.553 178.811 156.056 178.183 155.511 177.563C154.982 176.926 154.429 176.322 153.852 175.75C153.275 175.161 152.697 174.645 152.12 174.199V181.188H148.368V164.659H152.12V170.908C153.098 169.89 154.076 168.833 155.054 167.736C156.048 166.622 156.97 165.597 157.82 164.659H162.269C161.131 165.994 159.984 167.282 158.83 168.523C157.692 169.763 156.489 171.011 155.222 172.267C156.553 173.365 157.836 174.668 159.07 176.179C160.321 177.69 161.515 179.359 162.654 181.188H158.205Z" fill="white"/>
<path d="M164.736 181.188V164.659H175.991V167.783H168.488V171.027H175.15V174.08H168.488V178.063H176.544V181.188H164.736Z" fill="white"/>
<path d="M184.131 164.468C186.632 164.468 188.548 164.913 189.878 165.803C191.209 166.678 191.875 168.046 191.875 169.906C191.875 171.067 191.602 172.013 191.057 172.744C190.528 173.46 189.758 174.024 188.748 174.438C189.085 174.851 189.438 175.328 189.806 175.869C190.175 176.394 190.536 176.95 190.889 177.539C191.257 178.111 191.61 178.715 191.947 179.351C192.283 179.972 192.596 180.584 192.885 181.188H188.676C188.371 180.647 188.059 180.099 187.738 179.542C187.433 178.986 187.113 178.445 186.776 177.92C186.455 177.396 186.135 176.903 185.814 176.441C185.493 175.964 185.173 175.535 184.852 175.153H183V181.188H179.249V164.897C180.066 164.738 180.908 164.627 181.774 164.563C182.656 164.5 183.441 164.468 184.131 164.468ZM184.347 167.64C184.075 167.64 183.826 167.648 183.602 167.664C183.393 167.68 183.193 167.696 183 167.712V172.196H184.059C185.469 172.196 186.48 172.021 187.089 171.671C187.698 171.321 188.003 170.725 188.003 169.882C188.003 169.071 187.69 168.499 187.065 168.165C186.455 167.815 185.55 167.64 184.347 167.64Z" fill="white"/>
<rect x="109.116" y="122.667" width="83.7306" height="38.5161" fill="#F9E745"/>
<path d="M128.929 151.694C127.583 151.694 126.374 151.484 125.304 151.065C124.234 150.645 123.327 150.034 122.585 149.23C121.843 148.408 121.273 147.412 120.876 146.241C120.479 145.07 120.28 143.725 120.28 142.204C120.28 140.684 120.505 139.338 120.954 138.167C121.42 136.996 122.05 136.009 122.844 135.205C123.638 134.384 124.57 133.763 125.641 133.344C126.711 132.925 127.859 132.715 129.085 132.715C129.827 132.715 130.5 132.776 131.105 132.898C131.709 133.003 132.235 133.126 132.684 133.265C133.133 133.405 133.504 133.554 133.798 133.711C134.091 133.868 134.298 133.982 134.419 134.052L133.461 136.752C133.047 136.49 132.451 136.245 131.674 136.018C130.915 135.773 130.086 135.651 129.188 135.651C128.411 135.651 127.686 135.791 127.013 136.07C126.34 136.332 125.753 136.734 125.252 137.276C124.769 137.818 124.389 138.499 124.113 139.321C123.837 140.142 123.698 141.095 123.698 142.178C123.698 143.139 123.802 144.022 124.009 144.826C124.234 145.63 124.57 146.329 125.019 146.923C125.468 147.5 126.038 147.954 126.728 148.286C127.419 148.601 128.247 148.758 129.214 148.758C130.371 148.758 131.312 148.644 132.037 148.417C132.762 148.172 133.323 147.945 133.72 147.735L134.6 150.436C134.393 150.575 134.108 150.715 133.746 150.855C133.401 150.995 132.986 151.135 132.503 151.274C132.019 151.397 131.476 151.493 130.871 151.563C130.267 151.65 129.62 151.694 128.929 151.694Z" fill="black"/>
<path d="M139.598 142.204C139.598 143.2 139.719 144.109 139.96 144.931C140.202 145.734 140.547 146.425 140.996 147.001C141.462 147.561 142.023 147.998 142.679 148.312C143.336 148.627 144.078 148.784 144.906 148.784C145.718 148.784 146.452 148.627 147.108 148.312C147.764 147.998 148.316 147.561 148.765 147.001C149.231 146.425 149.585 145.734 149.827 144.931C150.068 144.109 150.189 143.2 150.189 142.204C150.189 141.208 150.068 140.308 149.827 139.504C149.585 138.683 149.231 137.993 148.765 137.433C148.316 136.857 147.764 136.411 147.108 136.096C146.452 135.782 145.718 135.625 144.906 135.625C144.078 135.625 143.336 135.782 142.679 136.096C142.023 136.411 141.462 136.857 140.996 137.433C140.547 138.01 140.202 138.7 139.96 139.504C139.719 140.308 139.598 141.208 139.598 142.204ZM153.607 142.204C153.607 143.76 153.374 145.132 152.908 146.32C152.459 147.508 151.838 148.504 151.044 149.308C150.267 150.095 149.352 150.689 148.299 151.091C147.246 151.493 146.124 151.694 144.932 151.694C143.741 151.694 142.61 151.493 141.54 151.091C140.487 150.689 139.563 150.095 138.769 149.308C137.992 148.504 137.371 147.508 136.905 146.32C136.439 145.132 136.206 143.76 136.206 142.204C136.206 140.649 136.439 139.286 136.905 138.115C137.371 136.927 138.001 135.93 138.795 135.127C139.607 134.323 140.539 133.72 141.592 133.318C142.645 132.916 143.758 132.715 144.932 132.715C146.106 132.715 147.22 132.916 148.273 133.318C149.326 133.72 150.241 134.323 151.018 135.127C151.812 135.93 152.442 136.927 152.908 138.115C153.374 139.286 153.607 140.649 153.607 142.204Z" fill="black"/>
<path d="M157.106 133.134H160.369V151.301H157.106V133.134Z" fill="black"/>
<path d="M176.679 151.301C176.092 150.304 175.436 149.238 174.711 148.102C173.986 146.949 173.235 145.796 172.458 144.642C171.681 143.471 170.887 142.344 170.076 141.261C169.282 140.16 168.522 139.172 167.797 138.298V151.301H164.586V133.134H167.253C167.944 133.868 168.686 134.742 169.48 135.756C170.274 136.752 171.069 137.792 171.863 138.875C172.674 139.959 173.451 141.051 174.193 142.152C174.953 143.235 175.626 144.249 176.213 145.193V133.134H179.45V151.301H176.679Z" fill="black"/>
</g>
<defs>
<filter id="filter0_d" x="0" y="0" width="302" height="303" filterUnits="userSpaceOnUse" color-interpolation-filters="sRGB">
<feFlood flood-opacity="0" result="BackgroundImageFix"/>
<feColorMatrix in="SourceAlpha" type="matrix" values="0 0 0 0 0 0 0 0 0 0 0 0 0 0 0 0 0 0 127 0" result="hardAlpha"/>
<feOffset/>
<feGaussianBlur stdDeviation="17.5"/>
<feColorMatrix type="matrix" values="0 0 0 0 0 0 0 0 0 0 0 0 0 0 0 0 0 0 0.1 0"/>
<feBlend mode="normal" in2="BackgroundImageFix" result="effect1_dropShadow"/>
<feBlend mode="normal" in="SourceGraphic" in2="effect1_dropShadow" result="shape"/>
</filter>
</defs>
</svg>
