<svg width="302" height="303" viewBox="0 0 302 303" fill="none" xmlns="http://www.w3.org/2000/svg">
<g filter="url(#filter0_d)">
<rect x="35" y="35" width="232" height="233" rx="14" fill="white"/>
<path d="M95.9678 154.867V155.564C96.0225 157.902 96.2754 159.55 96.7266 160.507C97.1914 161.45 98.1758 161.922 99.6797 161.922C101.17 161.922 102.154 161.402 102.633 160.363C102.92 159.748 103.063 158.709 103.063 157.246V136.103H109.38V157.144C109.38 159.714 108.936 161.751 108.047 163.255C106.543 165.798 103.829 167.069 99.9053 167.069C95.9814 167.069 93.3496 166.044 92.0098 163.993C90.6699 161.929 90 159.119 90 155.564V154.867H95.9678Z" fill="#6825F6"/>
<path d="M125.212 162.209C126.921 162.209 128.233 161.601 129.149 160.384C130.065 159.167 130.523 157.438 130.523 155.195C130.523 152.953 130.065 151.23 129.149 150.027C128.233 148.811 126.921 148.202 125.212 148.202C123.503 148.202 122.184 148.811 121.254 150.027C120.338 151.23 119.88 152.953 119.88 155.195C119.88 157.438 120.338 159.167 121.254 160.384C122.184 161.601 123.503 162.209 125.212 162.209ZM136.655 155.195C136.655 158.477 135.712 161.286 133.825 163.624C131.938 165.948 129.074 167.11 125.232 167.11C121.391 167.11 118.526 165.948 116.64 163.624C114.753 161.286 113.81 158.477 113.81 155.195C113.81 151.969 114.753 149.173 116.64 146.808C118.526 144.442 121.391 143.26 125.232 143.26C129.074 143.26 131.938 144.442 133.825 146.808C135.712 149.173 136.655 151.969 136.655 155.195Z" fill="#6825F6"/>
<path d="M152.938 143.485C155.878 143.485 158.175 144.545 159.829 146.664C161.497 148.783 162.331 151.518 162.331 154.867C162.331 158.34 161.511 161.218 159.87 163.501C158.229 165.784 155.939 166.926 153 166.926C151.154 166.926 149.671 166.557 148.55 165.818C147.88 165.381 147.155 164.615 146.376 163.521V166.331H140.654V136.144H146.479V146.89C147.217 145.851 148.03 145.058 148.919 144.511C149.972 143.827 151.312 143.485 152.938 143.485ZM151.441 162.106C152.945 162.106 154.114 161.498 154.948 160.281C155.782 159.064 156.199 157.465 156.199 155.482C156.199 153.896 155.994 152.584 155.584 151.545C154.805 149.576 153.369 148.592 151.277 148.592C149.158 148.592 147.702 149.556 146.909 151.483C146.499 152.509 146.294 153.835 146.294 155.462C146.294 157.376 146.718 158.962 147.565 160.22C148.413 161.478 149.705 162.106 151.441 162.106Z" fill="#6825F6"/>
<path d="M178.614 143.485C181.554 143.485 183.851 144.545 185.505 146.664C187.173 148.783 188.007 151.518 188.007 154.867C188.007 158.34 187.187 161.218 185.546 163.501C183.905 165.784 181.615 166.926 178.676 166.926C176.83 166.926 175.347 166.557 174.226 165.818C173.556 165.381 172.831 164.615 172.052 163.521V166.331H166.33V136.144H172.154V146.89C172.893 145.851 173.706 145.058 174.595 144.511C175.647 143.827 176.987 143.485 178.614 143.485ZM177.117 162.106C178.621 162.106 179.79 161.498 180.624 160.281C181.458 159.064 181.875 157.465 181.875 155.482C181.875 153.896 181.67 152.584 181.26 151.545C180.48 149.576 179.045 148.592 176.953 148.592C174.834 148.592 173.378 149.556 172.585 151.483C172.175 152.509 171.97 153.835 171.97 155.462C171.97 157.376 172.394 158.962 173.241 160.22C174.089 161.478 175.381 162.106 177.117 162.106Z" fill="#6825F6"/>
<path d="M204.77 136H211.927L201.816 154.867V166.229H195.5V154.867L185.041 136H192.485L198.761 149.166L204.77 136Z" fill="#6825F6"/>
</g>
<defs>
<filter id="filter0_d" x="0" y="0" width="302" height="303" filterUnits="userSpaceOnUse" color-interpolation-filters="sRGB">
<feFlood flood-opacity="0" result="BackgroundImageFix"/>
<feColorMatrix in="SourceAlpha" type="matrix" values="0 0 0 0 0 0 0 0 0 0 0 0 0 0 0 0 0 0 127 0" result="hardAlpha"/>
<feOffset/>
<feGaussianBlur stdDeviation="17.5"/>
<feColorMatrix type="matrix" values="0 0 0 0 0 0 0 0 0 0 0 0 0 0 0 0 0 0 0.1 0"/>
<feBlend mode="normal" in2="BackgroundImageFix" result="effect1_dropShadow"/>
<feBlend mode="normal" in="SourceGraphic" in2="effect1_dropShadow" result="shape"/>
</filter>
</defs>
</svg>
