<svg width="1108" height="1157" viewBox="0 0 1108 1157" fill="none" xmlns="http://www.w3.org/2000/svg">
<path fill-rule="evenodd" clip-rule="evenodd" d="M871.044 -163.713C987.309 -129.89 1080.88 -57.4684 1193.71 -13.5206C1343.55 44.8457 1543.1 9.65076 1641.92 136.546C1739.92 262.398 1717 450.433 1674.8 604.273C1635.14 748.88 1528.33 861.754 1415.82 960.851C1314.46 1050.12 1195.68 1117.17 1063.13 1143.02C938.096 1167.4 818.262 1106.38 690.946 1102.19C507.202 1096.15 299.78 1220.62 150.694 1113.02C7.35687 1009.57 -20.0543 786.073 12.0543 612.216C41.9343 450.425 245.195 383.666 313.072 233.8C381.296 83.1693 265.374 -148.472 400.035 -244.407C532.461 -338.751 714.93 -209.128 871.044 -163.713Z" fill="white"/>
</svg>
