<svg width="302" height="303" viewBox="0 0 302 303" fill="none" xmlns="http://www.w3.org/2000/svg">
<g filter="url(#filter0_d)">
<rect x="35" y="35" width="232" height="233" rx="14" fill="#8F9AF8"/>
<path d="M95.7092 141.365C98.56 141.365 100.959 142.324 102.907 144.243C104.854 146.163 105.828 148.519 105.828 151.314C105.828 154.108 104.854 156.465 102.907 158.384C100.959 160.303 98.5601 161.263 95.7092 161.263H90.5019V171H84.6594V141.364H95.7091L95.7092 141.365ZM95.7092 155.801C96.9512 155.801 97.9813 155.371 98.7998 154.51C99.6184 153.649 100.028 152.584 100.028 151.314C100.028 150.015 99.6184 148.943 98.7998 148.096C97.9814 147.249 96.9512 146.826 95.7092 146.826H90.5019V155.801H95.7092V155.801ZM128.329 171L126.551 165.666H114.74L112.961 171H106.653L117.026 141.364H124.265L134.68 171H128.329ZM116.602 160.204H124.731L120.667 148.096L116.602 160.204ZM156.462 171L150.493 160.712H146.047V171H140.205V141.364H152.059C154.797 141.364 157.125 142.324 159.045 144.243C160.964 146.163 161.923 148.477 161.923 151.186C161.923 153.021 161.401 154.722 160.357 156.288C159.313 157.855 157.93 159.033 156.208 159.823L162.77 171H156.462V171ZM146.047 146.826V155.59H152.059C153.16 155.59 154.105 155.159 154.896 154.298C155.686 153.437 156.081 152.4 156.081 151.186C156.081 149.973 155.686 148.943 154.896 148.096C154.105 147.249 153.16 146.826 152.059 146.826H146.047V146.826ZM187.812 141.364V146.953H179.811V171H173.968V146.953H166.009V141.364H187.812H187.812ZM210.611 171L208.832 165.666H197.021L195.242 171H188.934L199.307 141.364H206.546L216.961 171H210.611ZM198.883 160.204H207.012L202.948 148.096L198.883 160.204Z" fill="white"/>
<path fill-rule="evenodd" clip-rule="evenodd" d="M116.587 131.871H124.704V138.179H116.587V131.871Z" fill="white"/>
</g>
<defs>
<filter id="filter0_d" x="0" y="0" width="302" height="303" filterUnits="userSpaceOnUse" color-interpolation-filters="sRGB">
<feFlood flood-opacity="0" result="BackgroundImageFix"/>
<feColorMatrix in="SourceAlpha" type="matrix" values="0 0 0 0 0 0 0 0 0 0 0 0 0 0 0 0 0 0 127 0" result="hardAlpha"/>
<feOffset/>
<feGaussianBlur stdDeviation="17.5"/>
<feColorMatrix type="matrix" values="0 0 0 0 0 0 0 0 0 0 0 0 0 0 0 0 0 0 0.1 0"/>
<feBlend mode="normal" in2="BackgroundImageFix" result="effect1_dropShadow"/>
<feBlend mode="normal" in="SourceGraphic" in2="effect1_dropShadow" result="shape"/>
</filter>
</defs>
</svg>
