<svg width="302" height="303" viewBox="0 0 302 303" fill="none" xmlns="http://www.w3.org/2000/svg">
<g filter="url(#filter0_d)">
<rect x="35" y="35" width="232" height="233" rx="14" fill="white"/>
<path d="M86.3952 205.377C86.2064 205.229 86.0962 205.003 86.0962 204.763C86.0962 204.332 86.4458 203.982 86.8771 203.982H92.972C93.8203 203.982 94.2444 203.558 94.2444 202.71V200.946C94.2444 200.232 93.9244 199.808 93.2845 199.674L88.6188 198.736C86.9371 198.409 86.0962 197.278 86.0962 195.343V194.16C86.0962 191.808 87.2645 190.632 89.6011 190.632H94.574C94.7946 190.632 95.0089 190.705 95.1837 190.84L95.7714 191.292C95.9628 191.439 96.075 191.667 96.075 191.908C96.075 192.338 95.7267 192.686 95.2971 192.686H89.6234C88.79 192.686 88.3732 193.11 88.3732 193.959V195.454C88.3732 196.169 88.6932 196.593 89.3332 196.727L93.9989 197.642C95.6806 197.984 96.5215 199.116 96.5215 201.035V202.509C96.5215 204.86 95.3457 206.036 92.9943 206.036H87.5801C87.3563 206.036 87.139 205.961 86.963 205.823L86.3952 205.377Z" fill="#4258FB"/>
<path d="M97.4746 205.79C97.3807 205.649 97.3567 205.473 97.4096 205.312L102.011 191.32C102.146 190.91 102.529 190.632 102.961 190.632H105.151C105.583 190.632 105.967 190.91 106.101 191.321L110.687 205.329C110.736 205.48 110.716 205.645 110.633 205.78C110.534 205.939 110.361 206.036 110.174 206.036H109.309C108.873 206.036 108.488 205.754 108.356 205.338L107.637 203.073C107.506 202.657 107.12 202.375 106.684 202.375H101.429C100.993 202.375 100.607 202.657 100.475 203.073L99.7571 205.338C99.6254 205.754 99.2397 206.036 98.8039 206.036H97.9335C97.7491 206.036 97.5769 205.944 97.4746 205.79ZM101.769 199.012C101.559 199.658 102.041 200.321 102.72 200.321H105.393C106.072 200.321 106.554 199.658 106.344 199.012L104.363 192.909C104.32 192.776 104.196 192.686 104.056 192.686C103.917 192.686 103.793 192.776 103.75 192.909L101.769 199.012Z" fill="#4258FB"/>
<path d="M113.274 206.036C112.722 206.036 112.274 205.588 112.274 205.036V191.632C112.274 191.08 112.722 190.632 113.274 190.632H121.454C122.006 190.632 122.454 191.08 122.454 191.632V191.686C122.454 192.239 122.006 192.686 121.454 192.686H115.551C114.999 192.686 114.551 193.134 114.551 193.686V196.642C114.551 197.194 114.999 197.642 115.551 197.642H120.784C121.337 197.642 121.784 198.09 121.784 198.642V198.696C121.784 199.248 121.337 199.696 120.784 199.696H115.551C114.999 199.696 114.551 200.144 114.551 200.696V205.036C114.551 205.588 114.104 206.036 113.551 206.036H113.274Z" fill="#4258FB"/>
<path d="M125.2 206.036C124.648 206.036 124.2 205.588 124.2 205.036V191.632C124.2 191.08 124.648 190.632 125.2 190.632H133.38C133.932 190.632 134.38 191.08 134.38 191.632V191.686C134.38 192.239 133.932 192.686 133.38 192.686H127.477C126.925 192.686 126.477 193.134 126.477 193.686V195.972C126.477 196.525 126.925 196.972 127.477 196.972H132.71C133.263 196.972 133.71 197.42 133.71 197.972V198.026C133.71 198.579 133.263 199.026 132.71 199.026H127.477C126.925 199.026 126.477 199.474 126.477 200.026V202.982C126.477 203.534 126.925 203.982 127.477 203.982H133.38C133.932 203.982 134.38 204.43 134.38 204.982V205.036C134.38 205.588 133.932 206.036 133.38 206.036H125.2Z" fill="#4258FB"/>
<path d="M136.133 192.686C135.581 192.686 135.133 192.239 135.133 191.686V191.632C135.133 191.08 135.581 190.632 136.133 190.632H146.412C146.964 190.632 147.412 191.08 147.412 191.632V191.686C147.412 192.239 146.964 192.686 146.412 192.686H143.411C142.859 192.686 142.411 193.134 142.411 193.686V205.036C142.411 205.588 141.963 206.036 141.411 206.036H141.134C140.582 206.036 140.134 205.588 140.134 205.036V193.686C140.134 193.134 139.686 192.686 139.134 192.686H136.133Z" fill="#4258FB"/>
<path d="M149.108 191.348C149.026 191.196 149.031 191.01 149.123 190.862C149.211 190.719 149.367 190.632 149.535 190.632H150.605C150.976 190.632 151.315 190.837 151.489 191.164L154.255 196.382C154.63 197.09 155.644 197.091 156.021 196.384L158.805 191.162C158.979 190.836 159.318 190.632 159.687 190.632H160.754C160.924 190.632 161.082 190.724 161.166 190.872C161.248 191.015 161.25 191.189 161.172 191.334L156.395 200.188C156.316 200.334 156.275 200.497 156.275 200.663V205.036C156.275 205.588 155.827 206.036 155.275 206.036H154.998C154.445 206.036 153.998 205.588 153.998 205.036V200.663C153.998 200.497 153.956 200.334 153.878 200.188L149.108 191.348Z" fill="#4258FB"/>
<path d="M163.811 206.036C163.259 206.036 162.811 205.588 162.811 205.036V191.632C162.811 191.08 163.259 190.632 163.811 190.632H170.156C172.507 190.632 173.683 191.808 173.683 194.16V197.084C173.683 199.421 172.507 200.589 170.156 200.589H166.088C165.536 200.589 165.088 201.037 165.088 201.589V205.036C165.088 205.588 164.641 206.036 164.088 206.036H163.811ZM165.088 197.535C165.088 198.087 165.536 198.535 166.088 198.535H170.134C170.982 198.535 171.406 198.111 171.406 197.263V193.959C171.406 193.11 170.982 192.686 170.134 192.686H166.088C165.536 192.686 165.088 193.134 165.088 193.686V197.535Z" fill="#4258FB"/>
<path d="M177.024 206.036C176.471 206.036 176.024 205.588 176.024 205.036V191.632C176.024 191.08 176.471 190.632 177.024 190.632H183.368C185.72 190.632 186.895 191.808 186.895 194.16V196.638C186.895 197.989 186.498 198.951 185.704 199.524C185.174 199.905 184.819 200.596 185.116 201.177L187.213 205.271C187.293 205.428 187.289 205.615 187.202 205.769C187.109 205.934 186.934 206.036 186.745 206.036H185.723C185.347 206.036 185.002 205.824 184.831 205.489L182.396 200.69C182.225 200.354 181.881 200.142 181.504 200.142H179.301C178.748 200.142 178.301 200.59 178.301 201.142V205.036C178.301 205.588 177.853 206.036 177.301 206.036H177.024ZM178.301 197.089C178.301 197.641 178.748 198.089 179.301 198.089H183.346C184.194 198.089 184.618 197.664 184.618 196.816V193.959C184.618 193.11 184.194 192.686 183.346 192.686H179.301C178.748 192.686 178.301 193.134 178.301 193.686V197.089Z" fill="#4258FB"/>
<path d="M189.23 202.509V194.16C189.23 191.808 190.399 190.632 192.735 190.632H197.914C200.266 190.632 201.442 191.808 201.442 194.16V202.509C201.442 204.86 200.266 206.036 197.914 206.036H192.735C190.399 206.036 189.23 204.86 189.23 202.509ZM191.507 202.71C191.507 203.558 191.924 203.982 192.758 203.982H197.892C198.74 203.982 199.164 203.558 199.164 202.71V193.959C199.164 193.11 198.74 192.686 197.892 192.686H192.758C191.924 192.686 191.507 193.11 191.507 193.959V202.71Z" fill="#4258FB"/>
<path d="M205.235 206.036C204.683 206.036 204.235 205.588 204.235 205.036V191.632C204.235 191.08 204.683 190.632 205.235 190.632H210.196C214.065 190.632 216 192.567 216 196.437V200.232C216 204.101 214.065 206.036 210.196 206.036H205.235ZM206.512 202.982C206.512 203.534 206.96 203.982 207.512 203.982H210.33C212.592 203.982 213.723 202.851 213.723 200.589V196.079C213.723 193.817 212.592 192.686 210.33 192.686H207.512C206.96 192.686 206.512 193.134 206.512 193.686V202.982Z" fill="#4258FB"/>
<path d="M160.781 147.769C172.062 141.223 172.062 124.932 160.781 118.385L121.277 95.4613C109.953 88.8896 95.7648 97.0601 95.7648 110.153L95.7648 156.002C95.7648 169.095 109.953 177.265 121.277 170.694L160.781 147.769Z" stroke="#4258FB" stroke-width="6"/>
<path d="M141.608 118.385C130.327 124.932 130.327 141.223 141.608 147.769L181.111 170.694C192.436 177.265 206.624 169.095 206.624 156.002L206.624 110.153C206.624 97.0602 192.436 88.8896 181.111 95.4613L141.608 118.385Z" stroke="#4258FB" stroke-width="6"/>
</g>
<defs>
<filter id="filter0_d" x="0" y="0" width="302" height="303" filterUnits="userSpaceOnUse" color-interpolation-filters="sRGB">
<feFlood flood-opacity="0" result="BackgroundImageFix"/>
<feColorMatrix in="SourceAlpha" type="matrix" values="0 0 0 0 0 0 0 0 0 0 0 0 0 0 0 0 0 0 127 0" result="hardAlpha"/>
<feOffset/>
<feGaussianBlur stdDeviation="17.5"/>
<feColorMatrix type="matrix" values="0 0 0 0 0 0 0 0 0 0 0 0 0 0 0 0 0 0 0.1 0"/>
<feBlend mode="normal" in2="BackgroundImageFix" result="effect1_dropShadow"/>
<feBlend mode="normal" in="SourceGraphic" in2="effect1_dropShadow" result="shape"/>
</filter>
</defs>
</svg>
