<svg width="302" height="303" viewBox="0 0 302 303" fill="none" xmlns="http://www.w3.org/2000/svg">
<g filter="url(#filter0_d)">
<rect x="35" y="35" width="232" height="233" rx="14" fill="#1C1C25"/>
<g clip-path="url(#clip0)">
<path d="M215 159.582L212.85 157.458C213.576 156.049 213.949 154.489 213.937 152.908V152.473C213.937 149.838 212.878 147.311 210.992 145.448C209.106 143.585 206.548 142.538 203.881 142.538C201.214 142.538 198.656 143.585 196.77 145.448C194.884 147.311 193.825 149.838 193.825 152.473V152.908C193.878 153.679 193.771 154.453 193.509 155.181C193.247 155.91 192.836 156.577 192.302 157.142C191.768 157.707 191.122 158.158 190.405 158.466C189.687 158.774 188.913 158.933 188.13 158.933C187.348 158.933 186.574 158.774 185.856 158.466C185.139 158.158 184.493 157.707 183.959 157.142C183.425 156.577 183.014 155.91 182.752 155.181C182.49 154.453 182.383 153.679 182.436 152.908V143.367H170.56V141.624L166.33 137.445V143.382H160.267L164.497 147.574H166.261V154.65C166.261 156.786 167.12 158.835 168.649 160.346C170.178 161.857 172.252 162.705 174.415 162.705H176.532V158.535H174.415C173.381 158.521 172.395 158.106 171.669 157.378C170.944 156.651 170.538 155.671 170.539 154.65V147.509H178.258V152.906C178.279 154.923 178.929 156.884 180.12 158.523C181.31 160.161 182.984 161.397 184.911 162.062C186.839 162.726 188.928 162.787 190.892 162.236C192.856 161.685 194.6 160.549 195.887 158.983C196.826 160.19 198.033 161.169 199.415 161.844C200.797 162.519 202.317 162.872 203.859 162.877C205.967 162.876 208.021 162.218 209.729 160.997L211.631 162.877L215 159.582ZM203.878 158.712C202.33 158.712 200.846 158.104 199.752 157.023C198.657 155.942 198.043 154.476 198.043 152.947V152.492C197.996 151.733 198.102 150.973 198.355 150.255C198.607 149.536 199 148.875 199.513 148.307C200.025 147.74 200.645 147.278 201.339 146.949C202.032 146.62 202.785 146.429 203.553 146.388C204.322 146.347 205.091 146.457 205.816 146.711C206.541 146.965 207.209 147.358 207.78 147.867C208.35 148.377 208.814 148.993 209.143 149.681C209.471 150.368 209.66 151.113 209.696 151.872C209.707 152.083 209.707 152.295 209.696 152.507V152.93C209.696 154.456 209.084 155.919 207.993 157C206.903 158.081 205.423 158.69 203.879 158.695L203.878 158.712Z" fill="white"/>
<path d="M95.0914 150.203L102.096 168.113C102.124 168.186 102.134 168.264 102.125 168.341C102.116 168.418 102.088 168.491 102.044 168.555C101.999 168.619 101.94 168.671 101.87 168.708C101.801 168.744 101.724 168.763 101.645 168.763H93.4934C93.1009 168.76 92.7149 168.664 92.3688 168.481C92.0226 168.298 91.7267 168.034 91.5066 167.713L88.4305 163.28C88.1173 162.836 87.9662 162.3 88.002 161.76C88.142 160.005 88.5639 158.282 89.252 156.658C90.3432 154.093 92.0615 151.835 94.2528 150.087C94.3042 150.018 94.3735 149.964 94.4533 149.931C94.5331 149.898 94.6206 149.886 94.7064 149.898C94.7921 149.91 94.8731 149.944 94.9407 149.998C95.0083 150.051 95.06 150.122 95.0904 150.202L95.0914 150.203Z" fill="white"/>
<path d="M145.839 150.203L138.832 168.113C138.804 168.186 138.794 168.264 138.803 168.341C138.812 168.418 138.84 168.491 138.884 168.555C138.929 168.619 138.988 168.671 139.058 168.708C139.127 168.744 139.204 168.763 139.283 168.763H147.437C147.831 168.762 148.218 168.665 148.566 168.482C148.914 168.299 149.211 168.035 149.432 167.713L152.506 163.28C152.819 162.832 152.967 162.292 152.925 161.75C152.784 159.994 152.362 158.272 151.675 156.647C150.583 154.087 148.868 151.833 146.682 150.087C146.631 150.016 146.561 149.961 146.481 149.927C146.401 149.893 146.312 149.881 146.226 149.892C146.139 149.904 146.057 149.939 145.989 149.993C145.921 150.047 145.869 150.119 145.839 150.2V150.203Z" fill="white"/>
<path d="M145.669 143.2L139.194 138.531C138.074 137.725 136.764 137.215 135.388 137.049C125.463 135.871 115.431 135.871 105.506 137.049C104.142 137.214 102.843 137.72 101.733 138.521L95.2587 143.196C94.9752 143.403 94.7685 143.696 94.6701 144.03C94.5718 144.364 94.5874 144.721 94.7145 145.046L103.934 169.113C104.041 169.386 104.221 169.625 104.454 169.805C104.688 169.985 104.966 170.098 105.26 170.133C110.313 170.708 115.395 170.996 120.481 170.996C125.572 170.996 130.658 170.708 135.715 170.132C136.007 170.097 136.284 169.983 136.515 169.804C136.747 169.624 136.924 169.385 137.028 169.113L146.223 145.046C146.348 144.721 146.362 144.364 146.261 144.031C146.161 143.697 145.953 143.406 145.669 143.2ZM111.266 157.09C110.578 157.09 109.905 156.888 109.333 156.51C108.761 156.133 108.315 155.596 108.052 154.968C107.788 154.34 107.72 153.649 107.854 152.982C107.988 152.315 108.32 151.703 108.806 151.222C109.293 150.742 109.913 150.414 110.588 150.282C111.263 150.149 111.962 150.218 112.598 150.478C113.233 150.738 113.777 151.179 114.159 151.744C114.541 152.31 114.745 152.974 114.745 153.654C114.744 154.565 114.378 155.439 113.725 156.083C113.073 156.728 112.188 157.09 111.266 157.09ZM129.664 157.09C128.975 157.09 128.303 156.888 127.731 156.51C127.158 156.133 126.713 155.596 126.449 154.968C126.186 154.339 126.117 153.648 126.252 152.982C126.386 152.315 126.718 151.702 127.204 151.222C127.691 150.741 128.311 150.414 128.986 150.282C129.661 150.149 130.361 150.218 130.996 150.478C131.632 150.739 132.175 151.179 132.557 151.745C132.939 152.31 133.143 152.975 133.142 153.655C133.142 154.566 132.775 155.439 132.123 156.083C131.471 156.727 130.587 157.089 129.665 157.09H129.664Z" fill="white"/>
<path d="M133.228 135.195C133.265 135.205 133.298 135.229 133.319 135.262C133.34 135.294 133.348 135.333 133.342 135.372C133.336 135.41 133.316 135.444 133.286 135.469C133.256 135.494 133.218 135.507 133.179 135.506C129.189 135.237 124.943 135.082 120.466 135.082C115.989 135.082 111.741 135.238 107.754 135.506C107.715 135.507 107.676 135.494 107.646 135.469C107.616 135.444 107.596 135.41 107.59 135.372C107.584 135.333 107.593 135.294 107.614 135.262C107.635 135.229 107.667 135.205 107.704 135.195C109.52 134.727 111.362 134.367 113.22 134.116C115.624 133.806 118.046 133.664 120.469 133.693C122.893 133.667 125.316 133.812 127.718 134.128C129.575 134.375 131.414 134.732 133.228 135.195Z" fill="white"/>
<path d="M124.498 132.536C124.552 132.546 124.6 132.576 124.631 132.62C124.663 132.665 124.676 132.72 124.666 132.773C124.657 132.826 124.626 132.874 124.581 132.905C124.537 132.937 124.481 132.949 124.427 132.94C123.163 132.873 121.837 132.834 120.464 132.834C119.091 132.834 117.746 132.872 116.496 132.94C116.444 132.942 116.394 132.925 116.354 132.892C116.315 132.859 116.289 132.813 116.282 132.763C116.275 132.712 116.288 132.661 116.317 132.619C116.347 132.577 116.391 132.548 116.441 132.536C119.079 131.821 121.864 131.821 124.503 132.536H124.498Z" fill="white"/>
</g>
</g>
<defs>
<filter id="filter0_d" x="0" y="0" width="302" height="303" filterUnits="userSpaceOnUse" color-interpolation-filters="sRGB">
<feFlood flood-opacity="0" result="BackgroundImageFix"/>
<feColorMatrix in="SourceAlpha" type="matrix" values="0 0 0 0 0 0 0 0 0 0 0 0 0 0 0 0 0 0 127 0" result="hardAlpha"/>
<feOffset/>
<feGaussianBlur stdDeviation="17.5"/>
<feColorMatrix type="matrix" values="0 0 0 0 0 0 0 0 0 0 0 0 0 0 0 0 0 0 0.1 0"/>
<feBlend mode="normal" in2="BackgroundImageFix" result="effect1_dropShadow"/>
<feBlend mode="normal" in="SourceGraphic" in2="effect1_dropShadow" result="shape"/>
</filter>
<clipPath id="clip0">
<rect width="127" height="39" fill="white" transform="translate(88 132)"/>
</clipPath>
</defs>
</svg>
