<svg width="302" height="303" viewBox="0 0 302 303" fill="none" xmlns="http://www.w3.org/2000/svg">
<g filter="url(#filter0_d)">
<rect x="35" y="35" width="232" height="233" rx="14" fill="#3D3954"/>
<g clip-path="url(#clip0)">
<path fill-rule="evenodd" clip-rule="evenodd" d="M186.011 135.075C181.806 129.743 173.944 120.366 171.019 116.689C171.019 115.769 171.202 114.666 171.202 113.747C171.202 108.782 172.299 104.554 169.373 101.06C170.47 100.692 168.276 99.5892 168.459 98.486C169.008 96.4635 168.093 93.8894 166.082 92.2346C163.34 90.2121 160.232 90.7637 157.672 92.6023C157.306 92.9701 156.941 93.3378 156.575 93.7055C154.198 92.7862 152.004 92.4185 148.896 92.4185C145.971 92.4185 142.497 92.6024 139.571 93.7055C136.829 90.2121 133.172 89.1089 130.247 91.8669C128.236 93.8894 127.87 96.4635 128.053 98.3022C128.236 100.141 125.859 102.715 127.504 103.267C125.128 106.76 126.773 110.989 126.773 113.747C126.773 116.689 126.956 116.321 127.139 117.608C123.848 122.205 119.643 128.272 116.352 133.788V135.811C122.202 136.178 131.527 137.282 136.463 139.488C141.217 141.51 146.519 144.636 149.993 147.946C153.467 144.636 159.317 141.143 164.071 139.12C171.933 135.627 178.149 135.627 186.011 135.075Z" fill="#F19137"/>
<path fill-rule="evenodd" clip-rule="evenodd" d="M121.104 143.165C120.739 143.9 120.739 144.268 121.287 143.9C121.47 143.717 121.836 143.533 122.019 143.349C121.653 143.349 121.287 143.349 121.104 143.165Z" fill="#FBBD5E"/>
<path fill-rule="evenodd" clip-rule="evenodd" d="M144.325 104.185C145.056 104.185 145.605 104.737 145.605 105.472C145.605 106.208 145.056 106.76 144.325 106.76C143.593 106.76 143.045 106.208 143.045 105.472C143.045 104.737 143.593 104.185 144.325 104.185Z" fill="#341A11"/>
<path fill-rule="evenodd" clip-rule="evenodd" d="M153.284 104.185C154.015 104.185 154.564 104.737 154.564 105.472C154.564 106.208 154.015 106.76 153.284 106.76C152.552 106.76 152.004 106.208 152.004 105.472C152.004 104.737 152.552 104.185 153.284 104.185Z" fill="#341A11"/>
<path fill-rule="evenodd" clip-rule="evenodd" d="M149.443 108.599C156.757 108.599 162.607 113.931 162.607 120.734C162.607 127.353 156.757 139.12 149.443 139.12C142.13 139.12 136.279 127.537 136.279 120.734C136.279 114.115 142.13 108.599 149.443 108.599Z" fill="white"/>
<path fill-rule="evenodd" clip-rule="evenodd" d="M149.26 111.356C153.282 111.356 156.025 113.011 156.025 116.872C156.025 120.733 152.551 125.146 149.077 125.33C145.603 125.514 141.764 120.733 141.764 116.872C141.764 113.011 145.42 111.356 149.26 111.356Z" fill="#231F20"/>
<path fill-rule="evenodd" clip-rule="evenodd" d="M148.346 112.644C148.894 112.644 149.26 112.644 149.809 112.827C146.883 112.827 144.324 115.218 143.958 119.263C143.409 118.343 143.227 117.424 143.227 116.505C143.227 113.747 145.603 112.644 148.346 112.644Z" fill="white"/>
<path d="M164.501 102.347C164.318 102.347 164.254 102.347 164.071 102.347C164.071 102.531 164.071 102.5 164.254 103.266C164.254 104.369 164.254 105.289 164.071 106.392C163.888 106.944 163.705 107.495 163.523 108.047C162.791 109.701 161.511 110.805 159.683 111.356C158.769 111.54 157.672 111.724 156.575 111.724C155.478 111.724 154.381 111.54 153.65 111.356C153.284 111.172 152.735 110.989 152.37 110.805C151.09 110.069 150.176 108.966 149.444 107.679C149.262 107.311 149.079 106.944 148.896 106.576C148.896 106.76 148.713 106.944 148.713 107.127C148.165 108.414 147.433 109.334 146.702 110.069C146.336 110.437 145.971 110.621 145.605 110.805C145.239 110.989 144.874 111.172 144.325 111.172C143.411 111.54 142.497 111.54 141.4 111.54C140.303 111.54 139.206 111.356 138.292 111.172C137.377 110.989 136.646 110.437 136.098 109.885C135.366 109.334 135.001 108.598 134.635 107.863C134.269 107.127 134.086 106.024 134.086 104.737C134.086 103.634 134.086 102.531 134.086 101.795C133.904 101.795 133.904 101.795 133.721 101.979L132.807 98.6696C135.183 98.118 137.926 97.7503 140.668 97.7503C143.777 97.7503 145.258 97.8265 148.001 98.7458C148.549 98.9297 149.262 99.0335 149.444 99.0335C150.157 99.0335 151.147 99.0534 151.751 98.7498C153.396 98.1982 156.209 97.5664 158.769 97.7503C161.511 97.9341 164.071 98.4857 165.717 99.2212L164.501 102.347ZM158.586 101.244C156.392 101.06 153.832 100.876 151.821 101.795C150.907 102.163 150.541 102.531 150.724 103.634C150.724 104.737 151.09 105.656 151.456 106.392C152.004 107.311 152.735 108.047 153.467 108.598C153.65 108.782 154.015 108.782 154.198 108.966C154.747 109.15 155.478 109.334 156.392 109.334C157.306 109.334 158.038 109.15 158.769 108.966C159.317 108.782 159.866 108.598 160.232 108.231C160.597 107.863 160.963 107.495 161.146 106.944C161.329 106.76 161.329 106.208 161.511 105.84C161.694 104.921 161.694 104.186 161.694 103.45C161.694 103.266 161.694 103.082 161.694 102.898C161.694 102.715 161.694 102.531 161.694 102.531C161.694 102.347 161.694 102.347 161.694 102.347C161.511 101.979 161.511 101.979 161.146 101.795C160.232 101.244 158.952 101.244 158.586 101.244ZM147.616 102.715C147.668 102.348 147.216 102.141 146.854 102.063C146.741 102.039 146.625 102.011 146.519 101.979C144.691 101.428 142.68 101.06 140.486 101.06C139.754 101.06 138.84 101.06 137.926 101.06C136.646 101.244 136.463 101.244 136.463 102.531C136.463 103.634 136.463 104.921 136.646 105.656C136.646 106.208 136.829 106.576 136.829 106.76C137.012 107.311 137.377 107.679 137.743 108.047C138.109 108.414 138.657 108.598 139.206 108.782C139.754 108.966 140.668 109.15 141.583 109.15C142.314 109.15 143.228 108.966 143.777 108.782C144.325 108.598 144.874 108.231 145.239 107.863C145.788 107.495 146.153 106.76 146.702 105.84C147.068 104.921 147.433 104.002 147.616 102.715Z" fill="#341A11"/>
<path d="M149.626 154.749C146.153 151.255 141.216 147.578 135.365 144.636C126.041 140.223 120.19 140.04 110.5 140.407C110.5 144.085 112.511 143.717 115.071 143.901C121.287 144.085 126.041 144.452 132.988 147.762C139.57 151.071 145.056 155.484 147.981 158.978L149.626 161L151.272 158.978C154.197 155.484 159.682 150.888 166.264 147.762C173.943 144.085 179.245 143.349 186.376 143.717C189.85 143.901 191.312 143.349 191.312 140.407C180.708 140.407 174.309 140.04 164.07 144.82C158.037 147.578 152.917 151.439 149.626 154.749Z" fill="#341A11"/>
<path d="M144.324 129.559L142.861 129.008L144.141 126.25L145.604 126.801C146.335 127.169 147.066 127.353 147.615 127.537C149.809 127.905 151.637 127.353 153.283 126.434C154.928 125.514 156.025 124.043 156.757 122.573C157.172 121.737 157.264 120.717 157.488 119.815L160.413 120.366L160.048 121.837C159.25 125 157.838 127.301 154.928 129.008C152.734 130.295 150.175 131.03 147.249 130.479C146.335 130.295 145.421 129.927 144.324 129.559Z" fill="#341A11"/>
<path fill-rule="evenodd" clip-rule="evenodd" d="M174.126 117.056C175.955 119.447 178.88 122.94 181.439 126.066C183.999 129.191 186.559 132.317 187.839 133.972L190.215 136.914C187.107 136.914 184.182 137.098 181.074 137.282C174.858 137.649 169.373 138.201 162.974 141.143C159.5 142.797 156.209 144.82 153.283 147.21C152.186 148.129 151.272 149.049 150.175 149.968C149.992 150.152 149.627 150.52 149.444 150.704C149.261 150.52 148.895 150.336 148.713 149.968C147.798 149.049 146.701 148.129 145.604 147.21C142.679 144.82 139.388 142.797 135.914 141.143C127.87 137.465 119.642 137.282 111.049 137.282C113.609 133.236 116.717 128.456 119.276 124.411C120.739 122.204 122.019 120.182 123.299 118.527C123.299 117.976 123.299 117.24 123.299 115.769C123.299 113.931 123.847 110.989 124.579 108.047C125.127 106.76 125.493 105.841 125.858 104.737C125.31 103.818 124.944 102.715 124.761 101.428C124.579 99.773 124.761 97.9344 125.31 96.0957C126.041 94.6248 126.955 93.1539 128.235 91.683C128.601 91.4991 128.784 91.3153 129.149 90.9475C131.343 89.2928 133.903 88.7412 136.28 89.1089C138.108 89.4766 139.754 90.2121 141.216 91.4991C142.131 91.3153 143.045 91.1314 143.776 91.1314C145.604 90.9475 147.25 90.9475 148.713 90.9475C150.358 90.9475 151.821 91.1314 153.283 91.3153C153.832 91.4991 154.38 91.4991 154.929 91.683C156.757 90.3959 158.768 89.6605 160.962 89.4766C163.156 89.2928 165.533 90.0282 167.544 91.4991C169.19 92.6023 170.287 94.2571 171.018 96.0957C171.75 97.9344 171.932 99.9569 171.567 101.796C171.384 102.347 171.201 102.899 171.018 103.45C171.75 104.737 172.298 106.024 172.847 107.312C173.761 109.886 174.309 112.46 174.309 115.218C174.126 115.953 174.126 116.321 174.126 117.056ZM182.902 134.523C178.88 129.559 172.481 121.837 169.921 118.343C169.921 117.424 170.104 116.505 170.104 115.585C170.104 110.989 168.459 106.576 165.716 103.267C166.447 102.715 167.179 101.979 167.544 101.06C168.093 99.2215 166.996 96.6473 165.168 95.1764C162.608 93.1539 159.683 93.7055 157.123 95.5442C156.757 95.9119 156.392 96.0957 156.026 96.4635C153.832 95.728 151.638 95.1764 148.713 95.1764C145.787 95.1764 142.496 95.1764 139.937 96.4635C137.377 93.1539 133.903 92.0507 131.161 94.8087C129.332 96.6473 128.784 99.0376 128.967 100.876C129.149 102.531 129.698 103.267 131.343 103.634C129.149 106.944 127.687 112.827 127.687 115.585C127.687 118.343 127.87 118.16 128.052 119.263C124.944 123.675 120.922 129.559 117.814 134.707L122.385 134.891C127.87 135.259 133.172 136.546 137.925 138.752C142.313 140.775 146.336 143.349 149.81 146.475C153.101 143.349 157.123 140.775 161.694 138.752C169.007 135.443 175.223 134.891 182.902 134.523Z" fill="#341A11"/>
<path d="M96.6093 172.525C95.2865 176.852 93.8314 181.048 92.1117 185.244C90.3921 180.917 89.0692 176.59 88.011 172.525C85.7622 172.131 83.2488 172.131 81 172.525C82.5874 178.294 85.1008 184.719 87.8787 190.357C88.4078 190.488 89.0692 190.62 89.7306 190.62C88.6724 192.849 87.4819 195.078 85.8945 197.438C88.1433 197.963 90.7889 197.963 93.17 197.438C97.0062 189.964 100.975 180.392 103.488 172.394C101.239 172.131 98.7259 172.131 96.6093 172.525Z" fill="white"/>
<path d="M104.148 197.569C106.133 198.094 108.514 198.094 110.498 197.569C110.63 192.718 110.895 187.735 111.292 183.276H111.424C113.011 186.554 114.599 190.357 115.657 194.029C117.244 194.553 119.096 194.553 120.816 194.029C121.874 190.488 123.462 186.554 124.917 183.276C125.446 187.997 125.578 192.98 125.711 197.569C127.695 198.094 129.944 198.094 132.06 197.569C131.928 189.571 131.134 180.392 130.076 172.524C127.959 172 125.711 172 123.594 172.524C121.477 176.72 119.626 181.703 118.17 186.554C116.715 181.572 114.731 176.72 112.615 172.524C110.498 172 108.117 172 106 172.524C105.074 180.392 104.281 189.571 104.148 197.569Z" fill="white"/>
<path d="M146.481 198.225C148.994 198.225 151.375 197.7 153.227 196.782C153.492 194.684 152.83 192.586 151.772 191.275C150.714 191.8 149.126 192.062 147.407 192.062C143.57 192.062 141.719 189.702 141.719 184.981C141.719 180.392 143.174 178.163 146.216 178.163C147.671 178.163 148.73 178.818 149.523 179.999C151.375 179.212 152.698 177.638 153.227 175.672C151.904 173.311 149.259 172 146.084 172C139.47 172 135.237 177.114 135.237 185.375C134.84 193.635 139.073 198.225 146.481 198.225Z" fill="white"/>
<path d="M170.688 183.67C173.202 180.261 175.318 176.196 176.773 172.524C174.657 172 172.143 172 170.027 172.524C168.307 176.851 165.794 181.178 162.751 184.588V172.524C160.635 172 158.254 172 156.27 172.524V197.569C158.386 198.094 160.767 198.094 162.751 197.569V192.062C164.074 190.751 165.529 189.439 166.588 187.997C168.307 191.013 169.895 194.422 170.953 197.569C173.334 198.094 175.847 198.094 178.228 197.569C176.244 192.98 173.599 187.997 170.688 183.67Z" fill="white"/>
<path d="M193.968 172.525C192.646 176.852 191.191 181.048 189.471 185.244C187.751 180.917 186.428 176.59 185.37 172.525C183.121 172.131 180.608 172.131 178.359 172.525C179.947 178.294 182.46 184.719 185.238 190.357C185.767 190.488 186.428 190.62 187.09 190.62C186.031 192.849 184.841 195.078 183.254 197.438C185.502 197.963 188.148 197.963 190.529 197.438C194.365 189.964 198.334 180.392 200.847 172.394C198.466 172.131 196.085 172.131 193.968 172.525Z" fill="white"/>
<path d="M220.823 172.262H210.637H204.023L202.171 189.046C201.906 191.275 201.112 192.193 199.657 192.193C198.996 192.193 198.467 192.062 198.07 191.931C197.144 193.242 196.615 195.078 196.747 197.045C198.07 197.7 199.657 198.094 201.112 198.094C205.875 198.094 208.256 195.602 208.917 189.702L210.24 178.031H214.605V197.438C216.722 197.963 219.103 197.963 221.087 197.438V172.262H220.823Z" fill="white"/>
<path d="M113.707 213.394C115.583 213.394 116.766 212.137 116.766 210.12C116.766 208.098 115.583 206.837 113.707 206.837C111.826 206.837 110.648 208.098 110.648 210.12C110.648 212.137 111.826 213.394 113.707 213.394ZM113.707 212.286C112.666 212.286 112.002 211.447 112.002 210.12C112.002 208.788 112.67 207.944 113.707 207.944C114.744 207.944 115.408 208.788 115.408 210.12C115.408 211.447 114.744 212.286 113.707 212.286Z" fill="white"/>
<path d="M118.734 213.372C119.151 213.372 119.397 213.117 119.397 212.682V210.616H122.254V212.682C122.254 213.117 122.5 213.372 122.918 213.372C123.335 213.372 123.581 213.117 123.581 212.682V207.553C123.581 207.114 123.335 206.859 122.918 206.859C122.5 206.859 122.254 207.114 122.254 207.553V209.522H119.397V207.553C119.397 207.114 119.151 206.859 118.734 206.859C118.316 206.859 118.07 207.114 118.07 207.553V212.682C118.07 213.117 118.316 213.372 118.734 213.372Z" fill="white"/>
<path d="M125.379 213.332C126.451 213.332 126.996 212.488 127.088 210.783L127.242 208.041H129.092V212.682C129.092 213.117 129.338 213.372 129.756 213.372C130.173 213.372 130.42 213.117 130.42 212.682V207.637C130.42 207.202 130.173 206.947 129.756 206.947H126.689C126.271 206.947 126.047 207.193 126.025 207.637L125.862 210.81C125.81 211.833 125.59 212.211 125.089 212.211H125.076C124.777 212.211 124.57 212.405 124.57 212.695C124.57 213.09 124.882 213.332 125.379 213.332Z" fill="white"/>
<path d="M132.327 213.372C132.678 213.372 132.876 213.196 132.999 212.774L133.333 211.785H135.622L135.956 212.787C136.075 213.2 136.273 213.372 136.646 213.372C137.033 213.372 137.31 213.112 137.31 212.748C137.31 212.616 137.288 212.497 137.226 212.326L135.486 207.606C135.297 207.087 134.99 206.859 134.471 206.859C133.97 206.859 133.658 207.096 133.474 207.61L131.742 212.326C131.685 212.488 131.654 212.638 131.654 212.748C131.654 213.13 131.914 213.372 132.327 213.372ZM133.623 210.757L134.445 208.16H134.476L135.315 210.757H133.623Z" fill="white"/>
<path d="M141.331 206.463C142.06 206.463 142.653 206.094 142.798 205.554C142.82 205.483 142.829 205.413 142.829 205.343C142.829 205.141 142.684 205 142.469 205C142.267 205 142.148 205.088 142.043 205.316C141.919 205.646 141.687 205.835 141.331 205.835C140.966 205.835 140.746 205.646 140.619 205.316C140.509 205.088 140.39 205 140.192 205C139.973 205 139.828 205.141 139.828 205.352C139.828 205.426 139.841 205.501 139.867 205.567C140.025 206.099 140.623 206.463 141.331 206.463ZM139.261 213.372C139.639 213.372 139.867 213.257 140.087 212.923L142.724 208.999H142.776V212.682C142.776 213.117 143.027 213.372 143.44 213.372C143.853 213.372 144.099 213.117 144.099 212.682V207.58C144.099 207.127 143.84 206.859 143.396 206.859C143.023 206.859 142.798 206.982 142.583 207.303L139.942 211.24H139.889V207.549C139.889 207.118 139.643 206.859 139.23 206.859C138.817 206.859 138.566 207.118 138.566 207.549V212.646C138.566 213.108 138.821 213.372 139.261 213.372Z" fill="white"/>
<path d="M146.269 213.372C146.687 213.372 146.933 213.117 146.933 212.682V210.616H149.789V212.682C149.789 213.117 150.035 213.372 150.453 213.372C150.87 213.372 151.116 213.117 151.116 212.682V207.553C151.116 207.114 150.87 206.859 150.453 206.859C150.035 206.859 149.789 207.114 149.789 207.553V209.522H146.933V207.553C146.933 207.114 146.687 206.859 146.269 206.859C145.852 206.859 145.605 207.114 145.605 207.553V212.682C145.605 213.117 145.852 213.372 146.269 213.372Z" fill="white"/>
<path d="M153.12 211.271H154.953C155.3 211.271 155.559 211.064 155.559 210.708C155.559 210.353 155.3 210.15 154.953 210.15H153.12C152.773 210.15 152.514 210.353 152.514 210.708C152.514 211.064 152.773 211.271 153.12 211.271Z" fill="white"/>
<path d="M157.624 213.288H163.882C164.3 213.288 164.546 213.033 164.546 212.594V207.553C164.546 207.118 164.3 206.859 163.882 206.859C163.469 206.859 163.219 207.118 163.219 207.553V212.194H161.417V207.553C161.417 207.118 161.171 206.859 160.753 206.859C160.34 206.859 160.09 207.118 160.09 207.553V212.194H158.288V207.553C158.288 207.118 158.042 206.859 157.624 206.859C157.211 206.859 156.961 207.118 156.961 207.553V212.594C156.961 213.033 157.207 213.288 157.624 213.288Z" fill="white"/>
<path d="M166.712 213.372C167.13 213.372 167.376 213.117 167.376 212.682V210.502H167.411L169.85 213.029C170.101 213.292 170.237 213.372 170.474 213.372C170.835 213.372 171.098 213.104 171.098 212.739C171.098 212.563 171.045 212.449 170.9 212.286L168.624 209.948L170.751 207.83C170.892 207.689 170.949 207.558 170.949 207.386C170.949 207.096 170.689 206.859 170.364 206.859C170.167 206.859 170.048 206.925 169.819 207.162L167.411 209.632H167.376V207.553C167.376 207.118 167.13 206.859 166.712 206.859C166.299 206.859 166.049 207.118 166.049 207.553V212.682C166.049 213.117 166.299 213.372 166.712 213.372Z" fill="white"/>
<path d="M175.07 213.394C176.947 213.394 178.129 212.137 178.129 210.12C178.129 208.098 176.947 206.837 175.07 206.837C173.19 206.837 172.012 208.098 172.012 210.12C172.012 212.137 173.19 213.394 175.07 213.394ZM175.07 212.286C174.029 212.286 173.365 211.447 173.365 210.12C173.365 208.788 174.033 207.944 175.07 207.944C176.107 207.944 176.771 208.788 176.771 210.12C176.771 211.447 176.107 212.286 175.07 212.286Z" fill="white"/>
<path d="M179.42 213.332C180.492 213.332 181.037 212.488 181.13 210.783L181.283 208.041H183.133V212.682C183.133 213.117 183.38 213.372 183.797 213.372C184.215 213.372 184.461 213.117 184.461 212.682V207.637C184.461 207.202 184.215 206.947 183.797 206.947H180.729C180.312 206.947 180.088 207.193 180.066 207.637L179.903 210.81C179.851 211.833 179.631 212.211 179.13 212.211H179.117C178.818 212.211 178.611 212.405 178.611 212.695C178.611 213.09 178.923 213.332 179.42 213.332Z" fill="white"/>
<path d="M186.367 213.372C186.719 213.372 186.917 213.196 187.04 212.774L187.374 211.785H189.663L189.997 212.787C190.116 213.2 190.314 213.372 190.687 213.372C191.074 213.372 191.351 213.112 191.351 212.748C191.351 212.616 191.329 212.497 191.267 212.326L189.527 207.606C189.338 207.087 189.031 206.859 188.512 206.859C188.011 206.859 187.699 207.096 187.514 207.61L185.783 212.326C185.726 212.488 185.695 212.638 185.695 212.748C185.695 213.13 185.954 213.372 186.367 213.372ZM187.664 210.757L188.486 208.16H188.516L189.356 210.757H187.664Z" fill="white"/>
</g>
</g>
<defs>
<filter id="filter0_d" x="0" y="0" width="302" height="303" filterUnits="userSpaceOnUse" color-interpolation-filters="sRGB">
<feFlood flood-opacity="0" result="BackgroundImageFix"/>
<feColorMatrix in="SourceAlpha" type="matrix" values="0 0 0 0 0 0 0 0 0 0 0 0 0 0 0 0 0 0 127 0" result="hardAlpha"/>
<feOffset/>
<feGaussianBlur stdDeviation="17.5"/>
<feColorMatrix type="matrix" values="0 0 0 0 0 0 0 0 0 0 0 0 0 0 0 0 0 0 0.1 0"/>
<feBlend mode="normal" in2="BackgroundImageFix" result="effect1_dropShadow"/>
<feBlend mode="normal" in="SourceGraphic" in2="effect1_dropShadow" result="shape"/>
</filter>
<clipPath id="clip0">
<rect width="140" height="125" fill="white" transform="translate(81 89)"/>
</clipPath>
</defs>
</svg>
