<svg width="33" height="19" viewBox="0 0 33 19" fill="none" xmlns="http://www.w3.org/2000/svg">
<path d="M5.50006 0H2.00006C1.00006 0 0.800049 0.470752 0.800049 0.98985C0.800049 1.91688 1.98663 6.51481 6.32495 12.5959C9.21715 16.7488 13.2921 19 17.0001 19C19.2248 19 19.5001 18.5 19.5001 17.6388V14.5C19.5001 13.5 19.7108 13.3004 20.4153 13.3004C20.9344 13.3004 21.8244 13.56 23.9009 15.5623C26.274 17.9354 26.6652 19 28.0001 19H31.5001C32.5001 19 33.0001 18.5 32.7116 17.5133C32.396 16.5299 31.2629 15.103 29.7595 13.4117C28.9437 12.4476 27.7201 11.4094 27.3493 10.8902C26.8302 10.2228 26.9785 9.92611 27.3493 9.33288L27.4116 9.24457C27.939 8.49498 31.6453 3.18024 32.0585 1.28656C32.2809 0.544944 32.0585 0 31.0001 0H27.5001C26.6101 0 26.1999 0.470752 25.9773 0.98985C25.9773 0.98985 24.1975 5.32824 21.676 8.1463C20.8603 8.96204 20.4895 9.22159 20.0445 9.22159C19.8221 9.22159 19.5 8.96204 19.5 8.22049V1.28656C19.5 0.396621 19.2417 0 18.5001 0H13.0001C12.4439 0 12.1095 0.41304 12.1095 0.804493C12.1095 1.64813 13.3701 1.84269 13.5001 4.21585V9.36998C13.5001 10.5 13.296 10.7049 12.851 10.7049C11.6645 10.7049 8.77829 6.34711 7.0665 1.36069C6.73103 0.391499 6.39456 0 5.50006 0Z" fill="white"/>
</svg>
